# xmcd
#
# Track frame offsets:
#	150
#	26436
#	53217
#	96543
#	128093
#	142850
#
# Disc length: 2295 seconds
#
# Revision: 0
# Processed by: cddbd v1.5.1PL2 Copyright (c) Steve Scherf et al.
# Submitted via: EasyCDDAExtractor 8.2.3.1
#
DISCID=4b08f506
DTITLE=Paul Barrere and Fred Tackett - Sheridan Opera House - Telluride, CO 02-1
DTITLE=8-01 disc 2
DYEAR=2001
DGENRE=Blues
TTITLE0=Skin It Back
TTITLE1=Eula
TTITLE2=Old folks Boogie
TTITLE3=Willin'
TTITLE4=Six Feet Of Snow
TTITLE5=Down On The Farm
EXTD=
EXTT0=
EXTT1=
EXTT2=
EXTT3=
EXTT4=
EXTT5=
PLAYORDER=
